<svg xmlns="http://www.w3.org/2000/svg" viewBox="0 0 400 400">
  <defs>
    <!-- 发光滤镜 -->
    <filter id="cyanGlow" x="-50%" y="-50%" width="200%" height="200%">
      <feGaussianBlur stdDeviation="3" result="coloredBlur"/>
      <feMerge>
        <feMergeNode in="coloredBlur"/>
        <feMergeNode in="SourceGraphic"/>
      </feMerge>
    </filter>
    
    <filter id="strongGlow" x="-100%" y="-100%" width="300%" height="300%">
      <feGaussianBlur stdDeviation="5" result="coloredBlur"/>
      <feMerge>
        <feMergeNode in="coloredBlur"/>
        <feMergeNode in="coloredBlur"/>
        <feMergeNode in="SourceGraphic"/>
      </feMerge>
    </filter>
    
    <!-- 渐变定义 -->
    <linearGradient id="healthGrad" x1="0%" y1="0%" x2="100%" y2="0%">
      <stop offset="0%" style="stop-color:#ff0044"/>
      <stop offset="100%" style="stop-color:#ff4466"/>
    </linearGradient>
    
    <linearGradient id="energyGrad" x1="0%" y1="0%" x2="100%" y2="0%">
      <stop offset="0%" style="stop-color:#0088ff"/>
      <stop offset="100%" style="stop-color:#00ccff"/>
    </linearGradient>
    
    <linearGradient id="oxygenGrad" x1="0%" y1="0%" x2="100%" y2="0%">
      <stop offset="0%" style="stop-color:#00aa44"/>
      <stop offset="100%" style="stop-color:#00ff88"/>
    </linearGradient>
  </defs>
  
  <!-- 背景 -->
  <rect width="400" height="400" fill="#001122"/>
  
  <!-- 标题 -->
  <text x="200" y="30" fill="#00ffff" font-family="monospace" font-size="14" font-weight="bold" text-anchor="middle">UI 组件库</text>
  
  
  <!-- ==================== 状态条组件 ==================== -->
  <g id="healthBar" transform="translate(20, 60)">
    <text x="0" y="0" fill="#8899aa" font-family="monospace" font-size="10">生命值条 (Health Bar)</text>
    
    <g transform="translate(0, 10)">
      <text x="0" y="12" fill="#ff4466" font-family="monospace" font-size="11" font-weight="bold">HP</text>
      <rect x="25" y="2" width="150" height="16" rx="2" fill="rgba(0,0,0,0.5)" stroke="#445566" stroke-width="1"/>
      <rect x="27" y="4" width="98" height="12" rx="1" fill="url(#healthGrad)" filter="url(#cyanGlow)"/>
      <text x="180" y="14" fill="#ffffff" font-family="monospace" font-size="10">65/100</text>
    </g>
  </g>
  
  
  <g id="energyBar" transform="translate(20, 100)">
    <text x="0" y="0" fill="#8899aa" font-family="monospace" font-size="10">能量条 (Energy Bar)</text>
    
    <g transform="translate(0, 10)">
      <text x="0" y="12" fill="#00ccff" font-family="monospace" font-size="11" font-weight="bold">EN</text>
      <rect x="25" y="2" width="150" height="16" rx="2" fill="rgba(0,0,0,0.5)" stroke="#445566" stroke-width="1"/>
      <rect x="27" y="4" width="120" height="12" rx="1" fill="url(#energyGrad)" filter="url(#cyanGlow)"/>
      <text x="180" y="14" fill="#ffffff" font-family="monospace" font-size="10">80/100</text>
    </g>
  </g>
  
  
  <g id="oxygenBar" transform="translate(20, 140)">
    <text x="0" y="0" fill="#8899aa" font-family="monospace" font-size="10">氧气条 (Oxygen Bar)</text>
    
    <g transform="translate(0, 10)">
      <text x="0" y="12" fill="#00ff88" font-family="monospace" font-size="11" font-weight="bold">O₂</text>
      <rect x="25" y="2" width="150" height="16" rx="2" fill="rgba(0,0,0,0.5)" stroke="#445566" stroke-width="1"/>
      <rect x="27" y="4" width="75" height="12" rx="1" fill="url(#oxygenGrad)" filter="url(#cyanGlow)"/>
      <text x="180" y="14" fill="#ffffff" font-family="monospace" font-size="10">50/100</text>
    </g>
  </g>
  
  
  <!-- ==================== 按钮组件 ==================== -->
  <g id="buttons" transform="translate(20, 190)">
    <text x="0" y="0" fill="#8899aa" font-family="monospace" font-size="10">按钮样式 (Buttons)</text>
    
    <!-- 主按钮 -->
    <g transform="translate(0, 15)">
      <rect x="0" y="0" width="100" height="30" rx="3" fill="rgba(0,255,255,0.1)" stroke="#00ffff" stroke-width="2" filter="url(#cyanGlow)"/>
      <text x="50" y="20" fill="#00ffff" font-family="monospace" font-size="11" font-weight="bold" text-anchor="middle">主按钮</text>
    </g>
    
    <!-- 次要按钮 -->
    <g transform="translate(110, 15)">
      <rect x="0" y="0" width="100" height="30" rx="3" fill="rgba(0,17,34,0.8)" stroke="#445566" stroke-width="1"/>
      <text x="50" y="20" fill="#8899aa" font-family="monospace" font-size="11" text-anchor="middle">次要按钮</text>
    </g>
    
    <!-- 危险按钮 -->
    <g transform="translate(220, 15)">
      <rect x="0" y="0" width="100" height="30" rx="3" fill="rgba(255,0,68,0.1)" stroke="#ff0044" stroke-width="2" filter="url(#cyanGlow)"/>
      <text x="50" y="20" fill="#ff0044" font-family="monospace" font-size="11" font-weight="bold" text-anchor="middle">危险</text>
    </g>
  </g>
  
  
  <!-- ==================== 面板组件 ==================== -->
  <g id="panels" transform="translate(20, 260)">
    <text x="0" y="0" fill="#8899aa" font-family="monospace" font-size="10">面板样式 (Panels)</text>
    
    <!-- 主面板 -->
    <g transform="translate(0, 15)">
      <rect x="0" y="0" width="150" height="80" rx="5" fill="rgba(0,17,34,0.9)" stroke="#00ffff" stroke-width="2" filter="url(#cyanGlow)"/>
      
      <!-- 装饰角 -->
      <path d="M5,5 L20,5 L5,20 Z" fill="#00ffff"/>
      
      <path d="M145,5 L130,5 L145,20 Z" fill="#00ffff"/>
      
      <path d="M5,75 L20,75 L5,60 Z" fill="#00ffff"/>
      
      <path d="M145,75 L130,75 L145,60 Z" fill="#00ffff"/>
      
      <text x="75" y="45" fill="#00ffff" font-family="monospace" font-size="12" text-anchor="middle">主面板</text>
    </g>
    
    <!-- 次级面板 -->
    <g transform="translate(160, 15)">
      <rect x="0" y="0" width="150" height="80" rx="5" fill="rgba(0,17,34,0.8)" stroke="#445566" stroke-width="1"/>
      
      <text x="75" y="45" fill="#8899aa" font-family="monospace" font-size="12" text-anchor="middle">次级面板</text>
    </g>
  </g>
  
  
  <!-- ==================== 图标组件 ==================== -->
  <g id="icons" transform="translate(220, 60)">
    <text x="0" y="0" fill="#8899aa" font-family="monospace" font-size="10">图标 (Icons)</text>
    
    <g transform="translate(0, 15)">
      <!-- 资源图标 - 废金属 -->
      <g transform="translate(0, 0)">
        <rect x="0" y="0" width="30" height="30" rx="3" fill="rgba(255,204,0,0.2)" stroke="#ffcc00" stroke-width="1"/>
        <text x="15" y="21" fill="#ffcc00" font-family="monospace" font-size="16" text-anchor="middle">⚙</text>
      </g>
      
      <!-- 资源图标 - 水晶 -->
      <g transform="translate(35, 0)">
        <rect x="0" y="0" width="30" height="30" rx="3" fill="rgba(0,170,255,0.2)" stroke="#00aaff" stroke-width="1"/>
        <text x="15" y="21" fill="#00aaff" font-family="monospace" font-size="16" text-anchor="middle">💎</text>
      </g>
      
      <!-- 资源图标 - 生物样本 -->
      <g transform="translate(70, 0)">
        <rect x="0" y="0" width="30" height="30" rx="3" fill="rgba(0,255,136,0.2)" stroke="#00ff88" stroke-width="1"/>
        <text x="15" y="21" fill="#00ff88" font-family="monospace" font-size="16" text-anchor="middle">🧬</text>
      </g>
      
      <!-- 资源图标 - 数据 -->
      <g transform="translate(105, 0)">
        <rect x="0" y="0" width="30" height="30" rx="3" fill="rgba(255,0,255,0.2)" stroke="#ff00ff" stroke-width="1"/>
        <text x="15" y="21" fill="#ff00ff" font-family="monospace" font-size="16" text-anchor="middle">📀</text>
      </g>
      
      
      <!-- 第二行 -->
      <!-- 警告图标 -->
      <g transform="translate(0, 40)">
        <rect x="0" y="0" width="30" height="30" rx="3" fill="rgba(255,136,0,0.2)" stroke="#ff8800" stroke-width="1"/>
        <text x="15" y="22" fill="#ff8800" font-family="monospace" font-size="18" text-anchor="middle">⚠</text>
      </g>
      
      <!-- 危险图标 -->
      <g transform="translate(35, 40)">
        <rect x="0" y="0" width="30" height="30" rx="3" fill="rgba(255,0,68,0.2)" stroke="#ff0044" stroke-width="1"/>
        <text x="15" y="22" fill="#ff0044" font-family="monospace" font-size="18" text-anchor="middle">☠</text>
      </g>
      
      <!-- 确认图标 -->
      <g transform="translate(70, 40)">
        <rect x="0" y="0" width="30" height="30" rx="3" fill="rgba(0,255,136,0.2)" stroke="#00ff88" stroke-width="1"/>
        <text x="15" y="22" fill="#00ff88" font-family="monospace" font-size="18" text-anchor="middle">✓</text>
      </g>
      
      <!-- 信息图标 -->
      <g transform="translate(105, 40)">
        <rect x="0" y="0" width="30" height="30" rx="3" fill="rgba(0,170,255,0.2)" stroke="#00aaff" stroke-width="1"/>
        <text x="15" y="22" fill="#00aaff" font-family="monospace" font-size="18" text-anchor="middle">ℹ</text>
      </g>
    </g>
  </g>
  
  
  <!-- ==================== 颜色样本 ==================== -->
  <g id="colorPalette" transform="translate(20, 360)">
    <text x="0" y="0" fill="#8899aa" font-family="monospace" font-size="10">色彩样本 (Color Palette)</text>
    
    <g transform="translate(0, 15)">
      <!-- 赛博青 -->
      <rect x="0" y="0" width="25" height="20" fill="#00ffff"/>
      <text x="12" y="32" fill="#8899aa" font-family="monospace" font-size="7" text-anchor="middle">CYAN</text>
      
      <!-- 霓虹粉 -->
      <rect x="30" y="0" width="25" height="20" fill="#ff00ff"/>
      <text x="42" y="32" fill="#8899aa" font-family="monospace" font-size="7" text-anchor="middle">PINK</text>
      
      <!-- 电光紫 -->
      <rect x="60" y="0" width="25" height="20" fill="#8B00FF"/>
      <text x="72" y="32" fill="#8899aa" font-family="monospace" font-size="7" text-anchor="middle">PURPLE</text>
      
      <!-- 生物绿 -->
      <rect x="90" y="0" width="25" height="20" fill="#00ff88"/>
      <text x="102" y="32" fill="#8899aa" font-family="monospace" font-size="7" text-anchor="middle">GREEN</text>
      
      <!-- 警示橙 -->
      <rect x="120" y="0" width="25" height="20" fill="#ff8800"/>
      <text x="132" y="32" fill="#8899aa" font-family="monospace" font-size="7" text-anchor="middle">ORANGE</text>
      
      <!-- 危险红 -->
      <rect x="150" y="0" width="25" height="20" fill="#ff0044"/>
      <text x="162" y="32" fill="#8899aa" font-family="monospace" font-size="7" text-anchor="middle">RED</text>
      
      <!-- 深海蓝 -->
      <rect x="180" y="0" width="25" height="20" fill="#001133" stroke="#445566" stroke-width="1"/>
      <text x="192" y="32" fill="#8899aa" font-family="monospace" font-size="7" text-anchor="middle">DEEP</text>
      
      <!-- 钛白 -->
      <rect x="210" y="0" width="25" height="20" fill="#E0E0E0"/>
      <text x="222" y="32" fill="#8899aa" font-family="monospace" font-size="7" text-anchor="middle">WHITE</text>
    </g>
  </g>
</svg>