<?xml version="1.0" encoding="UTF-8"?>
<svg width="256" height="256" viewBox="0 0 256 256" xmlns="http://www.w3.org/2000/svg">
  <defs>
    <filter id="neonGlow" x="-50%" y="-50%" width="200%" height="200%">
      <feGaussianBlur stdDeviation="2" result="blur"/>
      <feMerge>
        <feMergeNode in="blur"/>
        <feMergeNode in="SourceGraphic"/>
      </feMerge>
    </filter>
    <radialGradient id="coreGlow" cx="50%" cy="50%" r="50%">
      <stop offset="0%" stop-color="#00F0FF" stop-opacity="1"/>
      <stop offset="100%" stop-color="#00F0FF" stop-opacity="0"/>
    </radialGradient>
  </defs>
  
  <!-- 机械蟹 Move 帧3 - 交替迈步 -->
  <g id="mech-crab-move-3">
    <!-- 左后腿 -->
    <path d="M 98 158 L 80 178 L 75 198" fill="none" stroke="#00F0FF" stroke-width="3" stroke-linecap="round" filter="url(#neonGlow)"/>
    <circle cx="75" cy="198" r="4" fill="#1A1A2E" stroke="#00F0FF" stroke-width="1"/>
    
    <!-- 右后腿 - 抬起 -->
    <path d="M 173 158 L 193 175 L 198 190" fill="none" stroke="#00F0FF" stroke-width="3" stroke-linecap="round" filter="url(#neonGlow)"/>
    <circle cx="198" cy="190" r="4" fill="#1A1A2E" stroke="#00F0FF" stroke-width="1"/>
    
    <!-- 左中腿 - 抬起 -->
    <path d="M 93 138 L 68 150 L 58 165" fill="none" stroke="#00F0FF" stroke-width="3" stroke-linecap="round" filter="url(#neonGlow)"/>
    <circle cx="58" cy="165" r="4" fill="#1A1A2E" stroke="#00F0FF" stroke-width="1"/>
    
    <!-- 右中腿 -->
    <path d="M 178 138 L 205 153 L 218 173" fill="none" stroke="#00F0FF" stroke-width="3" stroke-linecap="round" filter="url(#neonGlow)"/>
    <circle cx="218" cy="173" r="4" fill="#1A1A2E" stroke="#00F0FF" stroke-width="1"/>
    
    <!-- 左前腿 -->
    <path d="M 98 118 L 75 128 L 68 140" fill="none" stroke="#00F0FF" stroke-width="3" stroke-linecap="round" filter="url(#neonGlow)"/>
    <circle cx="68" cy="140" r="4" fill="#1A1A2E" stroke="#00F0FF" stroke-width="1"/>
    
    <!-- 右前腿 - 抬起 -->
    <path d="M 173 118 L 198 125 L 208 135" fill="none" stroke="#00F0FF" stroke-width="3" stroke-linecap="round" filter="url(#neonGlow)"/>
    <circle cx="208" cy="135" r="4" fill="#1A1A2E" stroke="#00F0FF" stroke-width="1"/>
    
    <!-- 身体主体 -->
    <rect x="98" y="95" width="76" height="70" rx="10" fill="#0D1B2A" stroke="#00F0FF" stroke-width="2"/>
    
    <!-- 身体装甲板块 -->
    <rect x="108" y="105" width="20" height="20" fill="#1A1A2E" stroke="#00F0FF" stroke-width="1"/>
    <rect x="136" y="105" width="20" height="20" fill="#1A1A2E" stroke="#00F0FF" stroke-width="1"/>
    <rect x="108" y="133" width="20" height="20" fill="#1A1A2E" stroke="#00F0FF" stroke-width="1"/>
    <rect x="136" y="133" width="20" height="20" fill="#1A1A2E" stroke="#00F0FF" stroke-width="1"/>
    
    <!-- 核心反应堆 -->
    <circle cx="136" cy="130" r="11" fill="url(#coreGlow)" opacity="1"/>
    <circle cx="136" cy="130" r="7" fill="#00F0FF" filter="url(#neonGlow)"/>
    
    <!-- 左螯 -->
    <path d="M 98 110 L 68 95 L 63 80" fill="none" stroke="#00F0FF" stroke-width="4" stroke-linecap="round" filter="url(#neonGlow)"/>
    <path d="M 63 80 L 53 70 L 68 75 Z" fill="#1A1A2E" stroke="#00F0FF" stroke-width="2"/>
    <path d="M 63 80 L 58 90 L 73 85 Z" fill="#1A1A2E" stroke="#00F0FF" stroke-width="2"/>
    
    <!-- 右螯 -->
    <path d="M 174 110 L 204 95 L 209 80" fill="none" stroke="#00F0FF" stroke-width="4" stroke-linecap="round" filter="url(#neonGlow)"/>
    <path d="M 209 80 L 219 70 L 204 75 Z" fill="#1A1A2E" stroke="#00F0FF" stroke-width="2"/>
    <path d="M 209 80 L 214 90 L 199 85 Z" fill="#1A1A2E" stroke="#00F0FF" stroke-width="2"/>
    
    <!-- 眼睛 -->
    <line x1="123" y1="100" x2="123" y2="90" stroke="#00F0FF" stroke-width="2"/>
    <circle cx="123" cy="87" r="4" fill="#00F0FF" filter="url(#neonGlow)"/>
    
    <line x1="149" y1="100" x2="149" y2="90" stroke="#00F0FF" stroke-width="2"/>
    <circle cx="149" cy="87" r="4" fill="#00F0FF" filter="url(#neonGlow)"/>
    
    <!-- 铆钉 -->
    <circle cx="108" cy="115" r="1.5" fill="#00F0FF"/>
    <circle cx="164" cy="115" r="1.5" fill="#00F0FF"/>
    <circle cx="108" cy="145" r="1.5" fill="#00F0FF"/>
    <circle cx="164" cy="145" r="1.5" fill="#00F0FF"/>
  </g>
</svg>