<?xml version="1.0" encoding="UTF-8"?>
<svg width="256" height="256" viewBox="0 0 256 256" xmlns="http://www.w3.org/2000/svg">
  <defs>
    <filter id="neonGlow" x="-50%" y="-50%" width="200%" height="200%">
      <feGaussianBlur stdDeviation="2" result="blur"/>
      <feMerge>
        <feMergeNode in="blur"/>
        <feMergeNode in="SourceGraphic"/>
      </feMerge>
    </filter>
    <radialGradient id="coreGlow" cx="50%" cy="50%" r="50%">
      <stop offset="0%" stop-color="#00F0FF" stop-opacity="1"/>
      <stop offset="100%" stop-color="#00F0FF" stop-opacity="0"/>
    </radialGradient>
  </defs>
  
  <!-- 机械蟹 Move 帧4 - 继续迈步 -->
  <g id="mech-crab-move-4">
    <!-- 左后腿 -->
    <path d="M 100 160 L 82 180 L 78 200" fill="none" stroke="#00F0FF" stroke-width="3" stroke-linecap="round" filter="url(#neonGlow)"/>
    <circle cx="78" cy="200" r="4" fill="#1A1A2E" stroke="#00F0FF" stroke-width="1"/>
    
    <!-- 右后腿 - 前伸 -->
    <path d="M 175 155 L 198 168 L 205 180" fill="none" stroke="#00F0FF" stroke-width="3" stroke-linecap="round" filter="url(#neonGlow)"/>
    <circle cx="205" cy="180" r="4" fill="#1A1A2E" stroke="#00F0FF" stroke-width="1"/>
    
    <!-- 左中腿 - 前伸 -->
    <path d="M 95 135 L 72 145 L 62 158" fill="none" stroke="#00F0FF" stroke-width="3" stroke-linecap="round" filter="url(#neonGlow)"/>
    <circle cx="62" cy="158" r="4" fill="#1A1A2E" stroke="#00F0FF" stroke-width="1"/>
    
    <!-- 右中腿 -->
    <path d="M 180 138 L 208 155 L 221 175" fill="none" stroke="#00F0FF" stroke-width="3" stroke-linecap="round" filter="url(#neonGlow)"/>
    <circle cx="221" cy="175" r="4" fill="#1A1A2E" stroke="#00F0FF" stroke-width="1"/>
    
    <!-- 左前腿 - 前伸 -->
    <path d="M 100 115 L 78 120 L 72 128" fill="none" stroke="#00F0FF" stroke-width="3" stroke-linecap="round" filter="url(#neonGlow)"/>
    <circle cx="72" cy="128" r="4" fill="#1A1A2E" stroke="#00F0FF" stroke-width="1"/>
    
    <!-- 右前腿 -->
    <path d="M 175 118 L 200 130 L 211 145" fill="none" stroke="#00F0FF" stroke-width="3" stroke-linecap="round" filter="url(#neonGlow)"/>
    <circle cx="211" cy="145" r="4" fill="#1A1A2E" stroke="#00F0FF" stroke-width="1"/>
    
    <!-- 身体主体 -->
    <rect x="100" y="95" width="76" height="70" rx="10" fill="#0D1B2A" stroke="#00F0FF" stroke-width="2"/>
    
    <!-- 身体装甲板块 -->
    <rect x="110" y="105" width="20" height="20" fill="#1A1A2E" stroke="#00F0FF" stroke-width="1"/>
    <rect x="138" y="105" width="20" height="20" fill="#1A1A2E" stroke="#00F0FF" stroke-width="1"/>
    <rect x="110" y="133" width="20" height="20" fill="#1A1A2E" stroke="#00F0FF" stroke-width="1"/>
    <rect x="138" y="133" width="20" height="20" fill="#1A1A2E" stroke="#00F0FF" stroke-width="1"/>
    
    <!-- 核心反应堆 -->
    <circle cx="138" cy="130" r="11" fill="url(#coreGlow)" opacity="1"/>
    <circle cx="138" cy="130" r="7" fill="#00F0FF" filter="url(#neonGlow)"/>
    
    <!-- 左螯 -->
    <path d="M 100 110 L 70 95 L 65 80" fill="none" stroke="#00F0FF" stroke-width="4" stroke-linecap="round" filter="url(#neonGlow)"/>
    <path d="M 65 80 L 55 70 L 70 75 Z" fill="#1A1A2E" stroke="#00F0FF" stroke-width="2"/>
    <path d="M 65 80 L 60 90 L 75 85 Z" fill="#1A1A2E" stroke="#00F0FF" stroke-width="2"/>
    
    <!-- 右螯 -->
    <path d="M 176 110 L 206 95 L 211 80" fill="none" stroke="#00F0FF" stroke-width="4" stroke-linecap="round" filter="url(#neonGlow)"/>
    <path d="M 211 80 L 221 70 L 206 75 Z" fill="#1A1A2E" stroke="#00F0FF" stroke-width="2"/>
    <path d="M 211 80 L 216 90 L 201 85 Z" fill="#1A1A2E" stroke="#00F0FF" stroke-width="2"/>
    
    <!-- 眼睛 -->
    <line x1="125" y1="100" x2="125" y2="90" stroke="#00F0FF" stroke-width="2"/>
    <circle cx="125" cy="87" r="4" fill="#00F0FF" filter="url(#neonGlow)"/>
    
    <line x1="151" y1="100" x2="151" y2="90" stroke="#00F0FF" stroke-width="2"/>
    <circle cx="151" cy="87" r="4" fill="#00F0FF" filter="url(#neonGlow)"/>
    
    <!-- 铆钉 -->
    <circle cx="110" cy="115" r="1.5" fill="#00F0FF"/>
    <circle cx="166" cy="115" r="1.5" fill="#00F0FF"/>
    <circle cx="110" cy="145" r="1.5" fill="#00F0FF"/>
    <circle cx="166" cy="145" r="1.5" fill="#00F0FF"/>
  </g>
</svg>