<svg xmlns="http://www.w3.org/2000/svg" viewBox="0 0 512 128" width="512" height="128">
  <defs>
    <radialGradient id="bubbleGrad" cx="30%" cy="30%" r="70%">
      <stop offset="0%" style="stop-color:#FFFFFF;stop-opacity:0.6"/>
      <stop offset="30%" style="stop-color:#00F0FF;stop-opacity:0.2"/>
      <stop offset="100%" style="stop-color:#00F0FF;stop-opacity:0.05"/>
    </radialGradient>
  </defs>
  
  <!-- Bubble Trail Frame 1 -->
  <g transform="translate(0,0)">
    <rect width="128" height="128" fill="#0A0A0F" opacity="0.3"/>
    
    <!-- Source bubbles (near thruster) -->
    <circle cx="30" cy="90" r="6" fill="url(#bubbleGrad)" stroke="#00F0FF" stroke-width="0.5"/>
    <circle cx="25" cy="95" r="4" fill="url(#bubbleGrad)" stroke="#00F0FF" stroke-width="0.5"/>
    <circle cx="35" cy="88" r="3" fill="url(#bubbleGrad)" stroke="#00F0FF" stroke-width="0.5"/>
    
    <!-- Rising bubbles -->
    <circle cx="40" cy="70" r="5" fill="url(#bubbleGrad)" stroke="#00F0FF" stroke-width="0.5"/>
    <circle cx="45" cy="55" r="4" fill="url(#bubbleGrad)" stroke="#00F0FF" stroke-width="0.5"/>
    <circle cx="50" cy="40" r="3" fill="url(#bubbleGrad)" stroke="#00F0FF" stroke-width="0.5"/>
    
    <!-- Top bubbles -->
    <circle cx="55" cy="25" r="2.5" fill="url(#bubbleGrad)" stroke="#00F0FF" stroke-width="0.5"/>
    <circle cx="60" cy="15" r="2" fill="url(#bubbleGrad)" stroke="#00F0FF" stroke-width="0.5"/>
    
    <!-- Scattered bubbles -->
    <circle cx="70" cy="80" r="3" fill="url(#bubbleGrad)" stroke="#00F0FF" stroke-width="0.3" opacity="0.6"/>
    <circle cx="80" cy="60" r="2" fill="url(#bubbleGrad)" stroke="#00F0FF" stroke-width="0.3" opacity="0.5"/>
  </g>
  
  <!-- Bubble Trail Frame 2 -->
  <g transform="translate(128,0)">
    <rect width="128" height="128" fill="#0A0A0F" opacity="0.3"/>
    
    <!-- Source bubbles -->
    <circle cx="32" cy="92" r="5" fill="url(#bubbleGrad)" stroke="#00F0FF" stroke-width="0.5"/>
    <circle cx="28" cy="88" r="4" fill="url(#bubbleGrad)" stroke="#00F0FF" stroke-width="0.5"/>
    <circle cx="36" cy="95" r="3" fill="url(#bubbleGrad)" stroke="#00F0FF" stroke-width="0.5"/>
    
    <!-- Rising bubbles (shifted) -->
    <circle cx="42" cy="75" r="4.5" fill="url(#bubbleGrad)" stroke="#00F0FF" stroke-width="0.5"/>
    <circle cx="47" cy="60" r="3.5" fill="url(#bubbleGrad)" stroke="#00F0FF" stroke-width="0.5"/>
    <circle cx="52" cy="45" r="3" fill="url(#bubbleGrad)" stroke="#00F0FF" stroke-width="0.5"/>
    
    <!-- Top bubbles -->
    <circle cx="57" cy="30" r="2.5" fill="url(#bubbleGrad)" stroke="#00F0FF" stroke-width="0.5"/>
    <circle cx="62" cy="18" r="2" fill="url(#bubbleGrad)" stroke="#00F0FF" stroke-width="0.5"/>
    <circle cx="65" cy="10" r="1.5" fill="url(#bubbleGrad)" stroke="#00F0FF" stroke-width="0.5"/>
    
    <!-- Scattered -->
    <circle cx="72" cy="85" r="3" fill="url(#bubbleGrad)" stroke="#00F0FF" stroke-width="0.3" opacity="0.6"/>
    <circle cx="82" cy="65" r="2" fill="url(#bubbleGrad)" stroke="#00F0FF" stroke-width="0.3" opacity="0.5"/>
  </g>
  
  <!-- Bubble Trail Frame 3 -->
  <g transform="translate(256,0)">
    <rect width="128" height="128" fill="#0A0A0F" opacity="0.3"/>
    
    <!-- Source bubbles -->
    <circle cx="30" cy="90" r="6" fill="url(#bubbleGrad)" stroke="#00F0FF" stroke-width="0.5"/>
    <circle cx="26" cy="94" r="4" fill="url(#bubbleGrad)" stroke="#00F0FF" stroke-width="0.5"/>
    <circle cx="34" cy="86" r="3.5" fill="url(#bubbleGrad)" stroke="#00F0FF" stroke-width="0.5"/>
    
    <!-- Rising bubbles -->
    <circle cx="44" cy="72" r="5" fill="url(#bubbleGrad)" stroke="#00F0FF" stroke-width="0.5"/>
    <circle cx="49" cy="58" r="4" fill="url(#bubbleGrad)" stroke="#00F0FF" stroke-width="0.5"/>
    <circle cx="54" cy="42" r="3" fill="url(#bubbleGrad)" stroke="#00F0FF" stroke-width="0.5"/>
    
    <!-- Top bubbles -->
    <circle cx="58" cy="28" r="2.5" fill="url(#bubbleGrad)" stroke="#00F0FF" stroke-width="0.5"/>
    <circle cx="63" cy="16" r="2" fill="url(#bubbleGrad)" stroke="#00F0FF" stroke-width="0.5"/>
    
    <!-- Scattered -->
    <circle cx="74" cy="82" r="3" fill="url(#bubbleGrad)" stroke="#00F0FF" stroke-width="0.3" opacity="0.6"/>
    <circle cx="84" cy="62" r="2" fill="url(#bubbleGrad)" stroke="#00F0FF" stroke-width="0.3" opacity="0.5"/>
  </g>
  
  <!-- Bubble Trail Frame 4 -->
  <g transform="translate(384,0)">
    <rect width="128" height="128" fill="#0A0A0F" opacity="0.3"/>
    
    <!-- Source bubbles -->
    <circle cx="31" cy="91" r="5.5" fill="url(#bubbleGrad)" stroke="#00F0FF" stroke-width="0.5"/>
    <circle cx="27" cy="87" r="4" fill="url(#bubbleGrad)" stroke="#00F0FF" stroke-width="0.5"/>
    <circle cx="35" cy="94" r="3" fill="url(#bubbleGrad)" stroke="#00F0FF" stroke-width="0.5"/>
    
    <!-- Rising bubbles -->
    <circle cx="43" cy="74" r="4.5" fill="url(#bubbleGrad)" stroke="#00F0FF" stroke-width="0.5"/>
    <circle cx="48" cy="59" r="3.5" fill="url(#bubbleGrad)" stroke="#00F0FF" stroke-width="0.5"/>
    <circle cx="53" cy="44" r="3" fill="url(#bubbleGrad)" stroke="#00F0FF" stroke-width="0.5"/>
    
    <!-- Top bubbles -->
    <circle cx="58" cy="29" r="2.5" fill="url(#bubbleGrad)" stroke="#00F0FF" stroke-width="0.5"/>
    <circle cx="63" cy="17" r="2" fill="url(#bubbleGrad)" stroke="#00F0FF" stroke-width="0.5"/>
    <circle cx="66" cy="9" r="1.5" fill="url(#bubbleGrad)" stroke="#00F0FF" stroke-width="0.5"/>
    
    <!-- Scattered -->
    <circle cx="73" cy="84" r="3" fill="url(#bubbleGrad)" stroke="#00F0FF" stroke-width="0.3" opacity="0.6"/>
    <circle cx="83" cy="64" r="2" fill="url(#bubbleGrad)" stroke="#00F0FF" stroke-width="0.3" opacity="0.5"/>
  </g>
</svg>