<?xml version="1.0" encoding="UTF-8"?>
<svg width="256" height="256" viewBox="0 0 256 256" xmlns="http://www.w3.org/2000/svg">
  <defs>
    <filter id="neonGlow" x="-50%" y="-50%" width="200%" height="200%">
      <feGaussianBlur stdDeviation="2" result="blur"/>
      <feMerge>
        <feMergeNode in="blur"/>
        <feMergeNode in="SourceGraphic"/>
      </feMerge>
    </filter>
    <radialGradient id="coreGlow" cx="50%" cy="50%" r="50%">
      <stop offset="0%" stop-color="#00F0FF" stop-opacity="1"/>
      <stop offset="100%" stop-color="#00F0FF" stop-opacity="0"/>
    </radialGradient>
  </defs>
  
  <!-- 机械鱼 Move 帧2 - 尾摆中 -->
  <g id="mech-fish-move-2">
    <!-- 尾鳍 - 更左 -->
    <path d="M 48 128 L 38 95 L 42 160 Z" fill="#1A1A2E" stroke="#00F0FF" stroke-width="2" filter="url(#neonGlow)"/>
    
    <!-- 身体主体 -->
    <ellipse cx="132" cy="128" rx="68" ry="36" fill="#0D1B2A" stroke="#00F0FF" stroke-width="2"/>
    
    <!-- 身体装甲板块 -->
    <path d="M 94 108 L 114 108 L 109 128 L 99 128 Z" fill="#1A1A2E" stroke="#00F0FF" stroke-width="1"/>
    <path d="M 119 108 L 139 108 L 134 128 L 124 128 Z" fill="#1A1A2E" stroke="#00F0FF" stroke-width="1"/>
    <path d="M 144 108 L 164 108 L 159 128 L 149 128 Z" fill="#1A1A2E" stroke="#00F0FF" stroke-width="1"/>
    
    <!-- 下装甲 -->
    <path d="M 104 148 L 124 148 L 119 128 L 109 128 Z" fill="#1A1A2E" stroke="#00F0FF" stroke-width="1"/>
    <path d="M 129 148 L 149 148 L 144 128 L 134 128 Z" fill="#1A1A2E" stroke="#00F0FF" stroke-width="1"/>
    
    <!-- 背鳍 -->
    <path d="M 132 92 L 142 68 L 152 92 Z" fill="#1A1A2E" stroke="#00F0FF" stroke-width="2" filter="url(#neonGlow)"/>
    
    <!-- 侧鳍 - 中位 -->
    <path d="M 122 144 L 130 172 L 142 144 Z" fill="#1A1A2E" stroke="#00F0FF" stroke-width="2" filter="url(#neonGlow)"/>
    
    <!-- 头部 -->
    <ellipse cx="189" cy="128" rx="25" ry="22" fill="#0D1B2A" stroke="#00F0FF" stroke-width="2"/>
    
    <!-- 探照灯/眼睛 -->
    <circle cx="199" cy="122" r="6" fill="#00F0FF" filter="url(#neonGlow)"/>
    <circle cx="199" cy="134" r="4" fill="#00F0FF" filter="url(#neonGlow)"/>
    
    <!-- 核心反应堆 -->
    <circle cx="132" cy="128" r="14" fill="url(#coreGlow)" opacity="1"/>
    <circle cx="132" cy="128" r="9" fill="#00F0FF" filter="url(#neonGlow)"/>
    
    <!-- 机械细节 -->
    <circle cx="94" cy="118" r="2" fill="#00F0FF"/>
    <circle cx="164" cy="118" r="2" fill="#00F0FF"/>
    <circle cx="94" cy="138" r="2" fill="#00F0FF"/>
    <circle cx="164" cy="138" r="2" fill="#00F0FF"/>
    
    <!-- 推进器喷口 -->
    <ellipse cx="50" cy="128" rx="10" ry="14" fill="#00F0FF" opacity="0.85" filter="url(#neonGlow)"/>
    <!-- 推进尾迹 -->
    <path d="M 38 120 L 10 128 L 38 136 Z" fill="#00F0FF" opacity="0.5" filter="url(#neonGlow)"/>
  </g>
</svg>