<svg xmlns="http://www.w3.org/2000/svg" viewBox="0 0 1536 256" width="1536" height="256">
  <defs>
    <filter id="glow" x="-50%" y="-50%" width="200%" height="200%">
      <feGaussianBlur stdDeviation="2" result="blur"/>
      <feMerge>
        <feMergeNode in="blur"/>
        <feMergeNode in="SourceGraphic"/>
      </feMerge>
    </filter>
    
    <linearGradient id="bodyGrad" x1="0%" y1="0%" x2="100%" y2="100%">
      <stop offset="0%" style="stop-color:#1a2332"/>
      <stop offset="100%" style="stop-color:#0D1B2A"/>
    </linearGradient>
  </defs>
  
  <!-- Frame 1: Move Start -->
  <g transform="translate(0,0)">
    <rect width="256" height="256" fill="none" stroke="#00F0FF" stroke-width="0.5" opacity="0.2"/>
    
    <!-- Thrusters - Extended flame -->
    <path d="M75 185 L105 185 L100 225 L80 225 Z" fill="url(#bodyGrad)" stroke="#00F0FF"/>
    <ellipse cx="90" cy="225" rx="8" ry="6" fill="#00F0FF" filter="url(#glow)"/>
    <path d="M60 230 L120 230" stroke="#00F0FF" stroke-width="3" opacity="0.5"/>
    
    <path d="M151 185 L181 185 L176 225 L156 225 Z" fill="url(#bodyGrad)" stroke="#00F0FF"/>
    <ellipse cx="166" cy="225" rx="8" ry="6" fill="#00F0FF" filter="url(#glow)"/>
    <path d="M136 230 L196 230" stroke="#00F0FF" stroke-width="3" opacity="0.5"/>
    
    <!-- Body - Tilted forward -->
    <g transform="rotate(-5 128 145)">
      <rect x="55" y="125" width="30" height="55" rx="3" fill="url(#bodyGrad)" stroke="#00F0FF"/>
      <rect x="171" y="125" width="30" height="55" rx="3" fill="url(#bodyGrad)" stroke="#00F0FF"/>
      
      <path d="M88 105 L168 105 L178 185 L78 185 Z" fill="url(#bodyGrad)" stroke="#00F0FF" stroke-width="2"/>
      
      <circle cx="128" cy="140" r="15" fill="#00F0FF" filter="url(#glow)"/>
      <circle cx="128" cy="140" r="5" fill="#FFFFFF"/>
      
      <path d="M108 75 L148 75 L155 105 L101 105 Z" fill="#0D1B2A" stroke="#00F0FF"/>
      <path d="M112 80 L144 80 L149 100 L107 100 Z" fill="#00F0FF" opacity="0.3"/>
      
      <ellipse cx="128" cy="73" rx="18" ry="5" fill="#1a2332" stroke="#00F0FF"/>
      <ellipse cx="128" cy="73" rx="10" ry="2.5" fill="#FFFFFF" filter="url(#glow)"/>
    </g>
  </g>
  
  <!-- Frame 2: Move Mid -->
  <g transform="translate(256,0)">
    <rect width="256" height="256" fill="none" stroke="#00F0FF" stroke-width="0.5" opacity="0.2"/>
    
    <!-- Thrusters -->
    <path d="M75 185 L105 185 L95 235 L85 235 Z" fill="url(#bodyGrad)" stroke="#00F0FF"/>
    <ellipse cx="90" cy="235" rx="10" ry="8" fill="#00F0FF" filter="url(#glow)"/>
    <path d="M50 240 L130 240" stroke="#00F0FF" stroke-width="4" opacity="0.6"/>
    
    <path d="M151 185 L181 185 L171 235 L161 235 Z" fill="url(#bodyGrad)" stroke="#00F0FF"/>
    <ellipse cx="166" cy="235" rx="10" ry="8" fill="#00F0FF" filter="url(#glow)"/>
    <path d="M126 240 L206 240" stroke="#00F0FF" stroke-width="4" opacity="0.6"/>
    
    <!-- Body - More tilt -->
    <g transform="rotate(-8 128 145)">
      <rect x="55" y="125" width="30" height="55" rx="3" fill="url(#bodyGrad)" stroke="#00F0FF"/>
      <rect x="171" y="125" width="30" height="55" rx="3" fill="url(#bodyGrad)" stroke="#00F0FF"/>
      
      <path d="M88 105 L168 105 L178 185 L78 185 Z" fill="url(#bodyGrad)" stroke="#00F0FF" stroke-width="2"/>
      
      <circle cx="128" cy="140" r="15" fill="#00F0FF" filter="url(#glow)"/>
      <circle cx="128" cy="140" r="5" fill="#FFFFFF"/>
      
      <path d="M108 75 L148 75 L155 105 L101 105 Z" fill="#0D1B2A" stroke="#00F0FF"/>
      <path d="M112 80 L144 80 L149 100 L107 100 Z" fill="#00F0FF" opacity="0.3"/>
      
      <ellipse cx="128" cy="73" rx="18" ry="5" fill="#1a2332" stroke="#00F0FF"/>
      <ellipse cx="128" cy="73" rx="10" ry="2.5" fill="#FFFFFF" filter="url(#glow)"/>
    </g>
  </g>
  
  <!-- Frame 3: Move Peak -->
  <g transform="translate(512,0)">
    <rect width="256" height="256" fill="none" stroke="#00F0FF" stroke-width="0.5" opacity="0.2"/>
    
    <!-- Thrusters - Max power -->
    <path d="M75 185 L105 185 L90 245 L100 245 Z" fill="url(#bodyGrad)" stroke="#00F0FF"/>
    <ellipse cx="95" cy="245" rx="12" ry="10" fill="#00F0FF" filter="url(#glow)"/>
    <path d="M40 250 L150 250" stroke="#00F0FF" stroke-width="5" opacity="0.7"/>
    
    <path d="M151 185 L181 185 L166 245 L176 245 Z" fill="url(#bodyGrad)" stroke="#00F0FF"/>
    <ellipse cx="171" cy="245" rx="12" ry="10" fill="#00F0FF" filter="url(#glow)"/>
    <path d="M106 250 L216 250" stroke="#00F0FF" stroke-width="5" opacity="0.7"/>
    
    <!-- Body - Max tilt -->
    <g transform="rotate(-10 128 145)">
      <rect x="55" y="125" width="30" height="55" rx="3" fill="url(#bodyGrad)" stroke="#00F0FF"/>
      <rect x="171" y="125" width="30" height="55" rx="3" fill="url(#bodyGrad)" stroke="#00F0FF"/>
      
      <path d="M88 105 L168 105 L178 185 L78 185 Z" fill="url(#bodyGrad)" stroke="#00F0FF" stroke-width="2"/>
      
      <circle cx="128" cy="140" r="15" fill="#00F0FF" filter="url(#glow)"/>
      <circle cx="128" cy="140" r="5" fill="#FFFFFF"/>
      
      <path d="M108 75 L148 75 L155 105 L101 105 Z" fill="#0D1B2A" stroke="#00F0FF"/>
      <path d="M112 80 L144 80 L149 100 L107 100 Z" fill="#00F0FF" opacity="0.3"/>
      
      <ellipse cx="128" cy="73" rx="18" ry="5" fill="#1a2332" stroke="#00F0FF"/>
      <ellipse cx="128" cy="73" rx="10" ry="2.5" fill="#FFFFFF" filter="url(#glow)"/>
    </g>
  </g>
  
  <!-- Frame 4: Move Mid 2 -->
  <g transform="translate(768,0)">
    <rect width="256" height="256" fill="none" stroke="#00F0FF" stroke-width="0.5" opacity="0.2"/>
    
    <path d="M75 185 L105 185 L95 235 L85 235 Z" fill="url(#bodyGrad)" stroke="#00F0FF"/>
    <ellipse cx="90" cy="235" rx="10" ry="8" fill="#00F0FF" filter="url(#glow)"/>
    <path d="M50 240 L130 240" stroke="#00F0FF" stroke-width="4" opacity="0.6"/>
    
    <path d="M151 185 L181 185 L171 235 L161 235 Z" fill="url(#bodyGrad)" stroke="#00F0FF"/>
    <ellipse cx="166" cy="235" rx="10" ry="8" fill="#00F0FF" filter="url(#glow)"/>
    <path d="M126 240 L206 240" stroke="#00F0FF" stroke-width="4" opacity="0.6"/>
    
    <g transform="rotate(-8 128 145)">
      <rect x="55" y="125" width="30" height="55" rx="3" fill="url(#bodyGrad)" stroke="#00F0FF"/>
      <rect x="171" y="125" width="30" height="55" rx="3" fill="url(#bodyGrad)" stroke="#00F0FF"/>
      
      <path d="M88 105 L168 105 L178 185 L78 185 Z" fill="url(#bodyGrad)" stroke="#00F0FF" stroke-width="2"/>
      
      <circle cx="128" cy="140" r="15" fill="#00F0FF" filter="url(#glow)"/>
      <circle cx="128" cy="140" r="5" fill="#FFFFFF"/>
      
      <path d="M108 75 L148 75 L155 105 L101 105 Z" fill="#0D1B2A" stroke="#00F0FF"/>
      <path d="M112 80 L144 80 L149 100 L107 100 Z" fill="#00F0FF" opacity="0.3"/>
      
      <ellipse cx="128" cy="73" rx="18" ry="5" fill="#1a2332" stroke="#00F0FF"/>
      <ellipse cx="128" cy="73" rx="10" ry="2.5" fill="#FFFFFF" filter="url(#glow)"/>
    </g>
  </g>
  
  <!-- Frame 5: Move Mid 3 -->
  <g transform="translate(1024,0)">
    <rect width="256" height="256" fill="none" stroke="#00F0FF" stroke-width="0.5" opacity="0.2"/>
    
    <path d="M75 185 L105 185 L100 225 L80 225 Z" fill="url(#bodyGrad)" stroke="#00F0FF"/>
    <ellipse cx="90" cy="225" rx="8" ry="6" fill="#00F0FF" filter="url(#glow)"/>
    <path d="M60 230 L120 230" stroke="#00F0FF" stroke-width="3" opacity="0.5"/>
    
    <path d="M151 185 L181 185 L176 225 L156 225 Z" fill="url(#bodyGrad)" stroke="#00F0FF"/>
    <ellipse cx="166" cy="225" rx="8" ry="6" fill="#00F0FF" filter="url(#glow)"/>
    <path d="M136 230 L196 230" stroke="#00F0FF" stroke-width="3" opacity="0.5"/>
    
    <g transform="rotate(-6 128 145)">
      <rect x="55" y="125" width="30" height="55" rx="3" fill="url(#bodyGrad)" stroke="#00F0FF"/>
      <rect x="171" y="125" width="30" height="55" rx="3" fill="url(#bodyGrad)" stroke="#00F0FF"/>
      
      <path d="M88 105 L168 105 L178 185 L78 185 Z" fill="url(#bodyGrad)" stroke="#00F0FF" stroke-width="2"/>
      
      <circle cx="128" cy="140" r="15" fill="#00F0FF" filter="url(#glow)"/>
      <circle cx="128" cy="140" r="5" fill="#FFFFFF"/>
      
      <path d="M108 75 L148 75 L155 105 L101 105 Z" fill="#0D1B2A" stroke="#00F0FF"/>
      <path d="M112 80 L144 80 L149 100 L107 100 Z" fill="#00F0FF" opacity="0.3"/>
      
      <ellipse cx="128" cy="73" rx="18" ry="5" fill="#1a2332" stroke="#00F0FF"/>
      <ellipse cx="128" cy="73" rx="10" ry="2.5" fill="#FFFFFF" filter="url(#glow)"/>
    </g>
  </g>
  
  <!-- Frame 6: Move End -->
  <g transform="translate(1280,0)">
    <rect width="256" height="256" fill="none" stroke="#00F0FF" stroke-width="0.5" opacity="0.2"/>
    
    <path d="M75 185 L105 185 L100 220 L80 220 Z" fill="url(#bodyGrad)" stroke="#00F0FF"/>
    <ellipse cx="90" cy="220" rx="7" ry="4" fill="#00F0FF" filter="url(#glow)"/>
    <path d="M65 225 L115 225" stroke="#00F0FF" stroke-width="2" opacity="0.4"/>
    
    <path d="M151 185 L181 185 L176 220 L156 220 Z" fill="url(#bodyGrad)" stroke="#00F0FF"/>
    <ellipse cx="166" cy="220" rx="7" ry="4" fill="#00F0FF" filter="url(#glow)"/>
    <path d="M141 225 L191 225" stroke="#00F0FF" stroke-width="2" opacity="0.4"/>
    
    <g transform="rotate(-4 128 145)">
      <rect x="55" y="125" width="30" height="55" rx="3" fill="url(#bodyGrad)" stroke="#00F0FF"/>
      <rect x="171" y="125" width="30" height="55" rx="3" fill="url(#bodyGrad)" stroke="#00F0FF"/>
      
      <path d="M88 105 L168 105 L178 185 L78 185 Z" fill="url(#bodyGrad)" stroke="#00F0FF" stroke-width="2"/>
      
      <circle cx="128" cy="140" r="15" fill="#00F0FF" filter="url(#glow)"/>
      <circle cx="128" cy="140" r="5" fill="#FFFFFF"/>
      
      <path d="M108 75 L148 75 L155 105 L101 105 Z" fill="#0D1B2A" stroke="#00F0FF"/>
      <path d="M112 80 L144 80 L149 100 L107 100 Z" fill="#00F0FF" opacity="0.3"/>
      
      <ellipse cx="128" cy="73" rx="18" ry="5" fill="#1a2332" stroke="#00F0FF"/>
      <ellipse cx="128" cy="73" rx="10" ry="2.5" fill="#FFFFFF" filter="url(#glow)"/>
    </g>
  </g>
</svg>